<svg width="16" height="16" viewBox="0 0 16 16" fill="none" xmlns="http://www.w3.org/2000/svg">
<g clip-path="url(#clip0_6562_42161)">
<path d="M12.0004 -0.000328064C16.1972 -0.000293209 17.5615 5.63888 13.829 7.55748L10.6665 9.18288V10.6665H11.111L11.1997 10.5481C12.0833 9.3699 13.7551 9.13086 14.9333 10.0145C16.1114 10.8982 16.3501 12.5699 15.4665 13.7481L15.3774 13.8665C14.3702 15.2094 12.7896 15.9996 11.111 15.9997H6.22193C2.78553 15.9996 -0.000335693 13.2138 -0.000335693 9.77741V6.22194C-0.000290337 2.78556 2.78556 -0.000281061 6.22193 -0.000328064H12.0004Z" fill="url(#paint0_linear_6562_42161)"/>
<path d="M12.5333 3.91111L8.88888 0H6.2C2.77583 0 0 2.77584 0 6.2V9.8C0 13.2242 2.77583 16 6.2 16H8.24444C8.24444 16 4.95555 13.5111 4.95555 10.0667V4.93333H11.5111L12.5333 3.91111Z" fill="url(#paint1_linear_6562_42161)"/>
<path d="M12.0007 -0.000144958C16.1974 -0.000110104 17.5617 5.63907 13.8292 7.55767L10.6667 9.18306C9.44765 8.10944 2.548 1.2 2.548 1.2C3.57762 0.445449 4.84786 -0.000126161 6.22214 -0.000144958H12.0007Z" fill="url(#paint2_linear_6562_42161)"/>
<path d="M5.20001 10.8V5.2H10.8M5.20001 5.2L10.8 10.8" stroke="white" stroke-width="2.48889" stroke-linecap="round" stroke-linejoin="round"/>
</g>
<defs>
<linearGradient id="paint0_linear_6562_42161" x1="13.4032" y1="2.66646" x2="7.84509" y2="12.0352" gradientUnits="userSpaceOnUse">
<stop stop-color="#13E0D9"/>
<stop offset="1" stop-color="#2C3EDF"/>
</linearGradient>
<linearGradient id="paint1_linear_6562_42161" x1="13.9111" y1="8.62867" x2="-2.06667" y2="8.62867" gradientUnits="userSpaceOnUse">
<stop stop-color="#0A03D1"/>
<stop offset="0.846154" stop-color="#00D0FF"/>
</linearGradient>
<linearGradient id="paint2_linear_6562_42161" x1="9.43379" y1="-0.326486" x2="9.43379" y2="9.18303" gradientUnits="userSpaceOnUse">
<stop stop-color="#1C08FD"/>
<stop offset="1" stop-color="#07E5FE"/>
</linearGradient>
<clipPath id="clip0_6562_42161">
<rect width="16" height="16" fill="white"/>
</clipPath>
</defs>
</svg>
