<svg width="93" height="24" viewBox="0 0 93 24" fill="none" xmlns="http://www.w3.org/2000/svg">
<path d="M7.47821 6.93182C7.47821 9.2887 9.3908 11.1988 11.7507 11.1988V14.3953C7.62474 14.3953 4.27771 11.0525 4.27771 6.93182H7.47821Z" fill="#008CCE"/>
<path d="M53.3875 8.00174H50.187V14.4023H53.3875V8.00174Z" fill="#008CCE"/>
<path d="M65.1333 8.00174H61.9328V14.4023H65.1333V8.00174Z" fill="#008CCE"/>
<path d="M27.7641 6.93182C27.7641 9.2887 29.6767 11.1988 32.0366 11.1988V14.3953C27.9106 14.3953 24.5636 11.0525 24.5636 6.93182H27.7641Z" fill="#008CCE"/>
<path d="M84.8962 7.46259C84.8962 9.52678 86.5697 11.1982 88.6365 11.1982V14.3946C84.8036 14.3946 81.6957 11.2906 81.6957 7.46259H84.8962Z" fill="#008CCE"/>
<path d="M16.0183 2.6651H12.8177V5.86151H14.4219V14.927H17.6224V4.26716C17.6224 3.3814 16.9051 2.6651 16.0183 2.6651Z" fill="#265C99"/>
<path d="M77.4238 2.6651H74.2233C73.3364 2.6651 72.6192 3.3814 72.6192 4.26716V14.3956H75.8197V5.86922H77.4238V2.6651Z" fill="#265C99"/>
<path d="M91.2992 2.6651H88.0987V5.86151H89.7028V14.3956H92.9033V4.26716C92.9033 3.3814 92.1861 2.6651 91.2992 2.6651Z" fill="#265C99"/>
<path d="M33.1068 14.3956H36.3073V5.86922H38.4435V14.4033H41.644V4.26716C41.644 3.3814 40.9268 2.6651 40.0399 2.6651H33.0991V14.3956H33.1068Z" fill="#265C99"/>
<path d="M48.0514 8.00171H44.8509V14.4022H48.0514V8.00171Z" fill="#265C99"/>
<path d="M20.2901 20.7958C18.8171 20.7958 17.6218 19.602 17.6218 18.1309V15.9974H14.4213V18.1309C14.4213 21.3735 17.0511 24 20.2979 24H22.4341V20.8035H20.2979L20.2901 20.7958Z" fill="#265C99"/>
<path d="M68.8737 2.6651H61.9328V5.86151H67.2695V14.3956H70.47V4.26716C70.47 3.3814 69.7528 2.6651 68.8659 2.6651" fill="#265C99"/>
<path d="M57.125 2.6651H48.0479V5.86151H55.5209V14.3956H58.7214V4.26716C58.7214 3.3814 58.0042 2.6651 57.1173 2.6651" fill="#265C99"/>
<path d="M31.5008 5.86922V2.6651H20.8196V5.86151H24.56V6.93212C24.56 9.28899 22.6474 11.1991 20.2875 11.1991V14.3956C24.4134 14.3956 27.7605 11.0528 27.7605 6.93212V5.86151H31.5008V5.86922Z" fill="#265C99"/>
<path d="M11.2133 2.66496H7.47299V0H4.27248V2.66496H0.532132V5.86137H4.27248V6.92428C4.27248 9.28115 2.35989 11.1913 0 11.1913V14.3877C4.12595 14.3877 7.47299 11.045 7.47299 6.92428V5.86137H11.2133V2.66496Z" fill="#265C99"/>
<path d="M81.6965 2.6651V7.46357C81.6965 9.52776 80.023 11.1991 77.9562 11.1991V14.3956C81.7891 14.3956 84.897 11.2916 84.897 7.46357V2.6651H81.6965Z" fill="#265C99"/>
</svg>
