<svg width="120" height="26" viewBox="0 0 120 26" fill="none" xmlns="http://www.w3.org/2000/svg">
<path d="M46.2984 6.82743V4.06365H43.074V1.41248C42.726 1.41248 40.0031 1.41248 39.6449 1.41248V4.06365H36.3898V6.82743H39.5118C39.5118 6.82743 36.0417 11.8329 35.8165 12.1605C36.1031 12.355 38.0071 13.614 38.2835 13.8085C38.4984 13.4912 41.3953 9.31483 41.3953 9.31483C41.3953 9.31483 44.1693 13.3888 44.3842 13.7164C44.6708 13.5117 46.4929 12.2321 46.7795 12.0377C46.5543 11.7203 43.1559 6.81719 43.1559 6.81719H46.2882L46.2984 6.82743Z" fill="black"/>
<path d="M46.8307 16.3062H43.6574V23.9219H53.0338V21.0353C52.6448 21.0353 46.8307 21.0353 46.8307 21.0353V16.3062Z" fill="black"/>
<path d="M49.6968 14.341H52.9109V3.90002C52.5629 3.90002 50.0448 3.90002 49.6968 3.90002V7.69766C49.6968 7.69766 47.0354 7.69766 46.6771 7.69766V10.6252H49.6968V14.3307V14.341Z" fill="black"/>
<path d="M67.1188 6.86847V4.06375H57.9062V6.86847C58.2543 6.86847 60.6393 6.86847 60.6393 6.86847C60.6393 6.86847 57.4559 11.9866 57.2511 12.3141C57.5377 12.4984 59.4519 13.696 59.7488 13.8803C59.9535 13.5425 62.5125 9.28422 62.5125 9.28422C62.5125 9.28422 65.0716 13.4708 65.2763 13.7984C65.5732 13.6141 67.4157 12.4165 67.7023 12.2322C67.4976 11.9047 64.3755 6.86847 64.3755 6.86847H67.1188Z" fill="black"/>
<path d="M73.1991 3.90002H70.0668V14.3H73.1991V10.5843H75.533V14.3H78.6243V3.90002H75.533V7.65671H73.1991V3.90002Z" fill="black"/>
<path d="M92.6889 7.49299V3.8489H85.4314V0.880402H95.8723V7.49299H92.6889Z" fill="black"/>
<path d="M89.3826 8.91569V11.4031H91.1432V8.90546H94.1936V11.4031H99.2093V14.3306C98.8101 14.3306 82.9338 14.3306 82.5345 14.3306V11.4031H86.3731V8.91569H89.3826Z" fill="black"/>
<path d="M112.363 25.9897H115.065V18.2102H106.846V21.1787H112.363V26V25.9897Z" fill="black"/>
<path d="M110.93 9.90865C113.694 9.90865 116.027 7.63621 116.027 4.93385C116.027 2.23149 113.694 0 110.93 0C108.166 0 105.832 2.2622 105.832 4.93385C105.832 7.6055 108.176 9.90865 110.93 9.90865ZM110.889 2.98897C111.953 2.98897 112.895 3.91023 112.895 4.95432C112.895 5.99842 111.974 6.91968 110.889 6.91968C109.804 6.91968 108.964 6.05983 108.964 4.95432C108.964 3.84881 109.824 2.98897 110.889 2.98897Z" fill="black"/>
<path d="M106.815 17.2788H109.906V14.3103H111.912V17.2788C112.261 17.2788 114.656 17.2788 115.004 17.2788V14.3103H119.211V11.3828H102.536V14.3103H106.815V17.2788Z" fill="black"/>
<path d="M0.880358 4.37081L1.16697 4.48341L1.45359 4.59601H1.49453C1.69925 4.66766 1.89374 4.72908 2.24177 4.73931H2.83547L3.12209 4.75979C3.12209 4.75979 3.36776 4.78026 3.44965 4.79049C3.53154 4.8212 3.61343 4.83144 3.68508 4.85191C3.87957 4.88262 4.21736 4.8212 4.75988 4.68813L4.89295 4.65742C5.71185 4.52435 5.82445 4.40152 5.87563 4.32986C5.96775 4.23774 6.18271 4.01254 6.22366 3.69522C6.22366 3.66451 6.22366 3.66451 6.2646 3.62357C6.31578 3.56215 6.38744 3.44955 6.38744 3.28577V2.66136L6.41815 2.4464L6.45909 2.06766C6.45909 1.89365 6.38744 1.75034 6.32602 1.64798C6.32602 1.64798 6.32602 1.6275 6.30555 1.60703C6.30555 1.5968 6.30555 1.57632 6.30555 1.55585C6.30555 1.44325 6.29531 1.27947 6.21342 1.07475C6.20319 1.0338 6.19295 1.01333 6.19295 0.962151C6.19295 0.951915 6.19295 0.900734 6.19295 0.890498C6.19295 0.798372 6.19295 0.675537 6.11106 0.53223C6.0087 0.347979 5.72208 0.194435 5.27169 0.0613647H5.24098L5.21027 0.0511285C5.17957 0.0511285 4.47327 -5.25676e-05 3.87957 0.0511285L3.68508 0.0716009L3.30634 0.143254L2.86618 0.255853C2.42603 0.368451 2.31343 0.368451 2.21107 0.378687L1.86303 0.429868C1.27957 0.562939 0.98272 0.962151 0.808704 1.259L0.68587 1.44325C0.583508 1.57632 0.573272 1.63774 0.563035 1.82199V2.03695L0.522091 2.31333C0.491382 2.40546 0.481146 2.48735 0.481146 2.54876C0.481146 2.58971 0.481146 2.63065 0.481146 2.66136C0.481146 2.6716 0.481146 2.69207 0.481146 2.70231C0.481146 2.74325 0.470909 2.79443 0.409492 2.89679L0.337839 2.99916C0.245713 3.12199 0.184296 3.23459 0.184296 3.43931C0.184296 3.49049 0.184296 3.55191 0.194532 3.62357C0.255949 4.03301 0.429965 4.23774 0.849649 4.37081H0.880358Z" fill="#008837"/>
<path d="M7.54408 2.24163C7.55432 2.45659 7.56455 2.5999 7.59526 2.69202C7.59526 2.75344 7.57479 2.95816 7.56455 3.081L7.53385 3.45974C7.53385 3.70541 7.53385 3.97155 7.75904 4.20698C7.88188 4.32982 8.33227 4.72903 8.80314 4.67785C9.00786 4.65738 9.07951 4.66761 9.31495 4.67785L9.60156 4.69832L10.3181 4.71879H10.5535L10.9937 4.7495C11.4134 4.79045 11.9354 4.83139 12.2527 4.79045C12.3653 4.78021 12.4268 4.79045 12.4779 4.79045C12.7236 4.81092 12.8464 4.75974 13.1228 4.53454C13.5118 4.19675 13.7268 3.8999 13.7984 3.58257C13.7984 3.58257 13.8496 3.38809 13.8598 3.16289L13.9008 2.9684C13.9315 2.8558 13.9622 2.73297 13.9622 2.61013C13.9622 2.55895 13.9622 2.49754 13.9417 2.44635L13.8189 2.18021C13.7882 2.12903 13.737 2.03691 13.737 1.99596C13.737 1.98573 13.7882 1.85265 13.7882 1.85265C13.8394 1.71958 13.9008 1.53533 13.911 1.35108C13.911 1.21801 13.8803 1.0747 13.7882 0.941632L13.6858 0.747144C13.6346 0.634546 13.5732 0.481002 13.3685 0.368404L13.2866 0.317223C13.1023 0.214861 12.8464 0.0613178 12.5598 0.102263C12.4882 0.102263 12.4063 0.102263 12.2937 0.071554L11.9047 0.0306091L11.1677 0.071554L10.3795 0.112499L10.1748 0.0817902C10.0724 0.0510815 9.94959 0.0203729 9.69369 0.0408453C9.36613 0.0613178 8.9055 0.0613178 8.9055 0.0613178H8.87479L8.7929 0.0817902L8.64959 0.112499C8.46534 0.143207 8.21967 0.184152 8.00471 0.368404L7.89211 0.46053C7.70786 0.593601 7.62597 0.695963 7.57479 0.992813V1.0747C7.52361 1.33061 7.48266 1.57628 7.52361 1.85265L7.55432 2.24163H7.54408Z" fill="#008837"/>
<path d="M15.0779 3.82822C15.1496 4.1046 15.2622 4.56523 15.6716 4.61641C15.7126 4.61641 15.7535 4.63688 15.8149 4.67783C15.9583 4.74948 16.1527 4.84161 16.511 4.82113C16.6953 4.8109 16.9102 4.84161 17.1252 4.87232C17.3504 4.90302 17.596 4.94397 17.8212 4.9235H18.1079C18.2512 4.9235 18.3945 4.9235 18.722 4.86208L19.0701 4.8109C19.3771 4.76995 19.6945 4.72901 19.8378 4.43216L19.889 4.31956C19.9708 4.16602 20.0834 3.96129 20.0834 3.66444L20.1346 3.18334L20.1858 2.56917L20.1551 2.15972V2.02665C20.1551 1.88334 20.0937 1.78098 20.063 1.71956L20.0834 1.65815C20.1244 1.56602 20.1756 1.45342 20.1756 1.32035C20.1756 1.18728 20.1346 1.04397 19.9811 0.880194L19.9299 0.798305C19.8275 0.583344 19.6945 0.440037 19.3157 0.358148L18.2 0.173896H18.1079C17.8315 0.112479 17.5346 0.0715338 17.1764 0.132951C16.8488 0.184132 16.4189 0.214841 16.4189 0.214841H16.3575L16.2756 0.255786C16.2551 0.235313 16.2244 0.214841 16.2244 0.214841L15.9992 0.358148L15.5386 0.665234C15.4157 0.747124 15.211 0.951848 15.0984 1.40224C15.0882 1.45342 15.0779 1.5046 15.0779 1.55578C15.0779 1.66838 15.0984 1.79122 15.1189 1.92429C15.1291 2.01641 15.1598 2.14948 15.1598 2.22114C15.1598 2.22114 15.1598 2.24161 15.1598 2.25185C15.0779 2.4361 15.037 2.61011 15.0268 2.76366C15.0268 2.83531 15.0268 2.89673 15.0472 2.95814L15.0268 3.09122C14.9858 3.25499 14.9346 3.48019 15.0268 3.69515L15.0779 3.85893V3.82822Z" fill="#008837"/>
<path d="M21.3323 4.15586C21.3425 4.28893 21.363 4.55507 21.6291 4.69838C21.8339 4.81098 22.274 4.95429 22.663 4.99523C23.052 5.03618 23.3283 5.04641 23.6457 4.77003C23.922 4.5346 24.1063 4.34011 24.1575 3.73618C24.1882 3.36767 24.1779 3.25508 24.1575 3.02988L24.1268 2.67161V2.26216C24.1268 1.95508 24.1472 1.63775 23.9425 1.18736C23.6457 0.54248 23.5331 0.276339 23.185 0.204685H23.1339C22.8677 0.143268 22.622 0.102323 22.4173 0.133032H22.4787H22.1921L22.1307 0.163741C21.8953 0.266103 21.5268 0.419646 21.4449 0.83933V0.910984C21.3835 1.13618 21.3425 1.35114 21.4449 1.65823C21.4756 1.72988 21.4449 1.87319 21.4244 1.99602L21.3732 2.385V3.2346L21.322 3.38815C21.2709 3.56216 21.189 3.80783 21.3016 4.03303C21.3118 4.0535 21.322 4.10468 21.322 4.14563L21.3323 4.15586Z" fill="#008837"/>
<path d="M25.2425 2.78413V2.82508L25.3346 3.5109V3.69515C25.3346 3.69515 25.3346 3.75657 25.3346 3.78728C25.3346 3.92035 25.3449 4.07389 25.4268 4.29909L25.4677 4.42192C25.5598 4.66759 25.5905 4.73925 25.6213 4.9235C25.6213 4.9235 25.6827 5.11799 25.6929 5.16917V5.31247V5.5172C25.6929 5.57862 25.6929 5.6298 25.6929 5.69121C25.6929 5.90617 25.7134 6.08019 25.8567 6.19279C25.9488 6.27468 26.0716 6.29515 26.1945 6.27468C26.5323 6.19279 26.5732 5.89594 26.6142 5.6298L26.6346 5.52743L26.6653 5.24082C26.6653 5.14869 26.6653 5.08728 26.7165 4.90303C26.7575 4.75972 26.7882 4.70854 26.8291 4.61641C26.8803 4.52429 26.9417 4.40145 27.0236 4.17625C27.0953 3.95106 27.126 3.75657 27.1464 3.58255C27.1669 3.41878 27.1874 3.2857 27.2488 3.12193L27.3409 2.90697C27.4331 2.70224 27.5559 2.46681 27.3512 2.0676L27.259 1.81169C27.2283 1.67862 27.1874 1.56602 27.0543 1.3613L26.9008 1.07468C26.8496 0.962085 26.7984 0.859723 26.6551 0.716416C26.4401 0.521928 26.0921 0.388858 26.0307 0.358149L25.9693 0.337677C25.9693 0.337677 25.8669 0.337677 25.8362 0.337677H25.826C25.4882 0.255787 25.3142 0.49122 25.1913 0.70618L25.1504 0.767597C25.0173 0.992794 24.9354 1.14634 24.9354 1.33059C24.9354 1.44319 24.9661 1.57626 25.0276 1.75027C25.1401 2.04712 25.2118 2.51799 25.2527 2.77389L25.2425 2.78413Z" fill="#008837"/>
<path d="M5.37404 7.81026C5.00554 7.81026 4.5142 7.89215 4.48349 7.89215L4.4016 7.91262L4.30948 7.99451L4.1457 8.12758C4.00239 8.22994 3.8079 8.38348 3.5827 8.6701C3.23467 9.10002 2.99924 9.54018 2.86617 9.99057C2.8457 10.0622 2.81499 10.0827 2.76381 10.1441C2.52838 10.3898 2.43625 10.6354 2.58979 11.2906L2.70239 11.8843C2.77404 12.3244 2.81499 12.5906 3.24491 12.9795C3.74648 13.4504 4.04333 13.6449 4.82129 13.9315C5.57877 14.2079 5.60947 14.2181 5.88585 14.2181H6.4079L6.64333 14.2591C6.889 14.3102 7.19609 14.3717 7.71813 14.0543C7.89215 13.952 8.06616 13.8906 8.24018 13.8291C8.57798 13.7165 8.96695 13.5835 9.20238 13.0921C9.28427 12.9284 9.34569 12.8465 9.40711 12.7646C9.57089 12.5496 9.66301 12.3756 9.72443 11.8126C9.82679 10.9425 9.87797 10.2772 9.69372 9.70395L9.62207 9.44805C9.51971 9.06931 9.43782 8.91577 8.99766 8.62915C8.86459 8.54726 8.81341 8.48585 8.76223 8.43466C8.59845 8.26065 8.47561 8.16852 7.91262 8.01498C7.62601 7.93309 7.51341 7.87167 7.43152 7.82049C7.19609 7.67719 7.04254 7.64648 6.5205 7.69766L5.78349 7.77955L5.40475 7.81026H5.37404Z" fill="#008837"/>
<path d="M24.2701 22.5707C24.2292 22.0589 24.1882 21.9974 23.789 21.547L23.7685 21.5163C23.4717 21.1785 23.226 21.1069 22.837 21.0864L22.4481 21.0455C22.2945 21.025 22.1615 21.0148 21.9567 21.0455L21.6496 21.0659C21.4552 21.0864 21.23 21.0967 20.9638 21.1478L20.7386 21.199C20.5851 21.2297 20.5441 21.2502 20.1142 21.2195L19.7252 21.1683C19.5 21.1376 19.3977 21.1274 18.978 21.2093L18.589 21.2809L18.1591 21.3628C17.7804 21.4345 17.637 21.588 17.4937 21.762L17.3811 21.8951L17.3504 21.936C17.289 22.0282 17.2276 22.2329 17.1764 22.54C17.115 22.8778 17.1764 23.0108 17.2788 23.2258C17.33 23.3384 17.4016 23.4817 17.4937 23.7581C17.6985 24.362 17.9032 24.4848 18.2205 24.6179L18.3945 24.6896C18.8244 24.9045 19.3874 24.8533 19.889 24.7817H19.9504C20.1074 24.7544 20.1995 24.7407 20.2268 24.7407H20.5032L21.0662 24.7919C21.363 24.8124 21.7213 24.8431 22.1819 24.8533C22.8882 24.8533 23.1441 24.71 23.5331 24.4337C23.9733 24.1266 24.1063 23.7683 24.2189 23.4919C24.3418 23.1746 24.3418 23.0722 24.3111 22.8368L24.2906 22.6014L24.2701 22.5707Z" fill="#008837"/>
<path d="M27.4228 17.3912L27.4023 16.7771C27.4023 16.3676 27.3 16.2038 27.1055 16.0503C27.0543 16.0094 27.0441 15.9991 27.0236 15.9377L26.9929 15.8456C26.9929 15.8456 26.9724 15.7739 26.9622 15.7535C26.9724 15.7227 27.0645 15.559 27.0645 15.559L27.2897 15.1598L27.0748 14.9755C27.0748 14.9755 27.0748 14.9448 27.0748 14.9141C27.0748 14.8424 27.0952 14.7298 27.1055 14.6377L27.1567 14.1259C27.1567 13.7369 27.0543 13.5424 26.9417 13.3479C26.8598 13.1944 26.7677 13.0306 26.696 12.6724L26.5425 11.9763C26.4913 11.792 26.4606 11.6794 26.4197 11.2598C26.3992 11.0857 26.3685 10.7275 26.0614 10.6558C25.9795 10.6353 25.7748 10.6251 25.611 10.881L25.5803 10.922L25.4677 11.3314L25.2937 12.007C25.222 12.3243 25.1913 12.6314 25.1606 12.8668C25.1401 13.0409 25.1197 13.2456 25.0889 13.307L24.9763 13.696C24.9763 13.696 24.9149 13.9519 24.9047 13.9519L24.8842 14.0031V14.0235C24.7819 14.4944 24.7307 14.6582 24.7102 14.7196C24.6897 14.7401 24.6386 14.7708 24.5669 14.8015C24.5464 14.8015 24.4645 14.7913 24.3826 14.7708C24.3826 14.7708 24.3724 14.7503 24.3622 14.7401L24.2701 14.5763C24.2701 14.5763 24.0653 14.5763 24.0449 14.5763C23.8811 14.4227 23.8094 14.3306 23.8094 14.1771C23.8094 14.1566 23.8094 14.1259 23.8094 14.1054L23.8401 13.7472C23.8401 13.5731 23.8401 13.4605 23.9425 13.1125C23.9937 12.9078 24.0551 12.8157 24.1165 12.7031C24.1984 12.5598 24.2905 12.4062 24.3315 12.0991L24.5567 10.6251C24.5976 10.3487 24.6283 10.0109 24.659 9.67315C24.6897 9.31488 24.7204 8.94638 24.7716 8.65976C24.8126 8.42433 24.8433 8.09677 24.8433 7.76921C24.8433 7.37 24.8126 6.98102 24.7204 6.76606C24.7 6.70465 24.6897 6.63299 24.6897 6.5511C24.6795 6.36685 24.659 5.93693 24.1575 5.86528L23.9732 5.83457C23.6047 5.77315 23.0929 5.69126 22.7039 5.88575C22.6015 5.93693 22.5606 5.93693 22.4787 5.92669C22.3764 5.92669 22.2126 5.90622 22.0181 6.01882C21.8441 6.12118 21.2913 6.44874 21.4244 7.18575C21.4653 7.42118 21.4346 7.90228 21.4244 8.32197C21.4039 8.69047 21.3834 9.00779 21.4039 9.22275C21.4346 9.59126 21.3118 10.6456 21.1992 11.1165C21.1071 11.4952 20.8614 12.0479 20.6771 12.4165C20.5748 12.6109 20.0937 13.1637 19.7149 13.4708L19.2031 13.8495L19.0291 13.9724L18.8653 14.0952C18.6401 14.259 18.4047 14.4227 18.2 14.4637L18.0464 14.5046C17.7598 14.5763 17.6063 14.607 17.4732 14.4535C17.2582 14.2385 17.0126 13.8393 17.1968 13.6039C17.463 13.2456 17.5551 13.2149 17.8929 13.1023L18.1693 12.9999C18.8039 12.7645 19.0701 12.5086 19.2953 12.2731C19.5512 12.0172 19.848 11.5873 20.0527 11.27C20.2472 10.9731 20.2677 10.4409 20.2779 9.76527L20.2984 9.28417C20.3496 8.83378 20.2984 8.19913 20.1858 7.6259L20.1244 7.35976C20.0527 6.98102 20.0016 6.75583 19.7149 6.46921L19.6023 6.34638C19.4079 6.13142 19.1622 5.85504 18.6606 5.91646C18.4252 5.93693 18.3535 5.91646 18.2 5.89599L17.985 5.85504L17.8212 5.82433C17.4937 5.76291 17.0842 5.69126 16.7464 5.83457L16.4803 5.96764C16.4803 5.96764 16.4803 5.96764 16.4701 5.96764C16.4598 5.96764 16.4291 5.96764 16.4291 5.96764H16.3984C16.1527 5.97788 15.5795 5.99835 15.3953 6.48969C15.2724 6.81724 15.1291 7.19598 15.1189 7.94323V8.59834C15.0984 8.97708 15.0779 9.29441 15.1086 9.70385C15.1291 9.98023 15.1086 10.185 15.0882 10.3999C15.0677 10.6661 15.0472 10.9117 15.1086 11.1983C15.1803 11.5054 15.2315 12.0479 15.1905 12.4881C15.1701 12.7338 15.2008 13.0306 15.2315 13.3172C15.252 13.522 15.2929 13.8393 15.2622 13.9212C15.1905 14.0645 15.1598 14.218 15.1394 14.3511C15.1394 14.4023 15.1189 14.4637 15.1086 14.5046C15.0472 14.5251 14.9653 14.5558 14.9653 14.5558C14.8834 14.5865 14.8425 14.607 14.4638 14.6377C14.0953 14.6582 14.0748 14.6377 13.9008 14.4432L13.8189 14.3511C13.7097 14.2283 13.6688 14.0542 13.696 13.829C13.7165 13.6243 13.7063 13.4196 13.696 13.2353C13.6858 12.959 13.6756 12.7031 13.7472 12.3448C13.8291 11.9661 13.8189 11.7204 13.8086 11.4338C13.8086 11.1779 13.7984 10.8605 13.8496 10.3487C13.952 9.21252 13.9622 8.84401 13.8701 8.24008C13.8394 8.02512 13.8394 7.91252 13.8496 7.78968C13.8496 7.60543 13.8496 7.43142 13.737 7.12433C13.696 7.01173 13.6858 6.89913 13.6756 6.7763C13.6653 6.56134 13.6346 6.16213 13.1433 6.04953L12.8874 5.96764C12.6827 5.88575 12.4882 5.80386 11.9457 5.80386C11.7819 5.80386 11.7307 5.79362 11.6795 5.77315C11.526 5.73221 11.4134 5.72197 10.9937 5.79362C10.6457 5.85504 10.2464 5.80386 9.92912 5.77315C9.67322 5.74244 9.47873 5.72197 9.32519 5.75268H9.28424H9.22282C9.22282 5.75268 9.03857 5.79362 9.00786 5.79362C8.9055 5.79362 8.67007 5.82433 8.50629 5.98811C8.40393 6.09047 8.34251 6.22354 8.34251 6.37709C8.34251 6.84795 8.63936 6.98102 8.93621 7.11409L8.97716 7.13457C9.274 7.26764 9.6118 7.41094 9.95983 7.68732C10.3386 7.98417 10.4512 8.19913 10.5023 8.42433L10.6559 8.86449C10.7583 9.12039 10.8709 9.3763 10.8913 9.71409L10.9118 10.0724C10.9323 10.4102 10.963 10.7275 10.9527 11.0141C10.9527 11.1165 10.9527 11.229 10.9323 11.3314C10.8913 11.7613 10.6047 12.7133 10.4819 12.9999C10.1441 13.4708 9.71416 14.0133 9.59133 14.0952L9.19211 14.4125C9.00786 14.5763 8.7929 14.7605 8.61889 14.8424C8.25038 15.0267 7.27794 15.3542 6.81731 15.3542C6.57165 15.3542 6.34645 15.385 6.14173 15.4054C5.87558 15.4464 5.61968 15.4771 5.4559 15.4157L4.87244 15.2314C4.51417 15.129 4.09448 15.0062 3.85905 14.8834C3.36771 14.6377 2.93779 14.3613 2.77401 14.1976L2.56929 13.9416C2.49763 13.8393 2.41575 13.7267 2.28267 13.6039C2.08819 13.4196 1.72992 13.2149 1.40236 13.1637L1.00315 13.1023C1.00315 13.1023 1.02362 13.5527 1.02362 13.5834C1.02362 13.6243 0.962204 14.259 0.941731 14.433C0.829133 14.5558 0.665354 14.781 0.5937 15.1495C0.573228 15.2826 0.552755 15.3645 0.552755 15.4259C0.552755 15.4566 0.552755 15.4873 0.552755 15.518C0.552755 15.5487 0.522047 15.6409 0.419685 15.9172C0.337795 16.1322 0.266141 16.4086 0.204724 16.7259V16.7975L0.225197 16.9613L0.348031 17.4731C0.419685 17.6779 0.409448 17.9542 0.409448 18.2818V18.3739C0.409448 18.7629 0.409448 19.3157 0.470866 19.6535C0.470866 19.6842 0.470866 19.7046 0.470866 19.7353C0.470866 19.9196 0.37874 20.1755 0.286614 20.4212L0.204724 20.6464L0.102362 20.9125C0.0818897 21.1377 0 21.3424 0 21.629C0 21.8133 0.0307086 22.0282 0.112598 22.3149L0.163779 22.4889C0.29685 22.9597 0.470866 23.5944 0.89055 24.0141C0.962204 24.0857 0.992912 24.1471 1.04409 24.2188C1.19764 24.4645 1.36142 24.6794 1.94488 24.9865C2.34409 25.2015 3.53149 25.5802 4.00236 25.5802C4.11496 25.5802 4.19685 25.6007 4.29921 25.6212C4.48346 25.6621 4.70866 25.7235 5.14881 25.6928L7.29842 25.5495C7.81023 25.5086 8.86456 25.57 9.12046 25.6416C9.7244 25.8054 10.2055 25.7133 10.5126 25.6519C10.6252 25.6314 10.748 25.6109 10.7992 25.6109C10.963 25.6314 11.137 25.6109 11.311 25.5802C11.5157 25.5495 11.7205 25.5086 11.9047 25.5802C12.3346 25.7133 12.8772 25.7235 13.3583 25.6109C13.5937 25.5597 13.8598 25.5393 14.1055 25.5188L14.3819 25.4983H14.4126C14.4126 25.4983 14.4842 25.4983 14.5149 25.4983C14.5457 25.4983 15.9685 25.4881 15.9685 25.4881L16.0708 25.3345C16.3063 24.9763 16.6236 24.4952 16.6236 24.0038C16.6236 23.9527 16.6236 23.9015 16.6031 23.8503C16.6031 23.8093 16.6031 23.7582 16.6031 23.7172C16.6031 23.492 16.5417 23.2566 16.4086 22.9905C16.337 22.8471 16.2449 22.4172 16.1834 22.1306L16.0913 21.7109V21.6905C15.9685 21.2605 15.7433 20.4621 15.7228 20.1857C15.6819 19.6023 15.5795 18.8653 15.4976 18.5377C15.4464 18.3432 15.5897 18.0975 15.7126 17.944C15.7945 17.8519 15.8764 17.7495 16.2244 17.8621C16.3472 17.9031 16.4257 18.0941 16.4598 18.4353V18.5275C16.5622 19.459 16.6748 19.9196 17.0228 20.0424C17.0433 20.0424 17.1149 20.1038 17.1559 20.1448C17.3094 20.2881 17.5449 20.5031 17.9031 20.4519C18.2716 20.4007 18.5378 20.3086 18.896 20.1755C19.111 20.1038 19.5921 20.0731 20.3393 20.0731H20.6157C21.3527 20.0936 21.7826 20.0936 21.9771 20.0424C22.0488 20.022 22.3661 20.0117 22.8267 20.0117C23.1134 20.0117 23.6559 19.7865 23.8094 19.5613C23.9425 19.3668 23.9527 19.0905 23.9527 18.7936C23.9527 18.5889 23.8913 18.4353 23.8504 18.3023L23.7992 18.118L23.7378 17.8519C23.7173 17.7802 23.6866 17.6779 23.6866 17.6369C23.6866 17.6369 23.6866 17.6062 23.6866 17.5857C23.6866 17.422 23.6456 17.2582 23.6047 17.0432V16.992L23.5126 16.7464C23.4716 16.6542 23.4614 16.6133 23.4614 16.5826V16.5621L23.5433 16.3983C23.5774 16.3233 23.6115 16.2755 23.6456 16.255C23.6456 16.255 23.7378 16.1731 23.7787 16.1322L23.8708 16.0912L24.0449 16.0298L24.3008 15.9479L24.3417 15.8558C24.4236 15.907 24.4952 15.9684 24.526 15.9889L24.5055 15.9684C24.5055 15.9684 24.5874 16.0503 24.6181 16.081L24.6078 16.1936L24.6283 16.2857L24.659 16.5109L24.7102 16.859L24.7716 17.2275V17.3605L24.7921 17.5653C24.8023 17.729 24.8126 17.9235 24.8945 18.2204C24.9149 18.2716 24.9149 18.3125 24.9149 18.333C24.9149 18.3637 24.9149 18.3842 24.8945 18.4251C24.874 18.5172 24.833 18.6298 24.833 18.8141V19.2338L24.8638 19.981V21.0046L24.8945 21.5267L24.9354 22.1716C24.9354 22.1716 24.9559 22.4991 24.9559 22.5094L24.9252 22.581C24.8228 22.8369 24.6386 23.6763 24.6283 24.4133V24.5259C24.6283 24.8842 24.8945 25.1708 25.2834 25.2527H25.3244H25.3653C25.8157 25.2322 26.2456 25.0275 26.6449 24.6385L26.696 24.5873L26.737 24.4952L26.8598 24.1983C27.0441 23.8298 27.0748 23.5125 27.085 23.2361C27.0952 23.0723 27.1055 22.9393 27.1464 22.796C27.1976 22.6424 27.2181 22.4479 27.2181 22.233C27.2181 22.0385 27.2181 21.8235 27.1976 21.5881C27.1874 21.322 27.1771 21.0251 27.1771 20.7283C27.1771 20.6259 27.1771 20.5133 27.1771 20.4109C27.1771 20.2574 27.1874 20.1346 27.1874 20.0424C27.1874 19.807 27.1771 19.6842 27.1669 19.592C27.1669 19.5511 27.1567 19.5101 27.1567 19.459C27.1567 19.3975 27.1567 19.3259 27.1874 19.1826C27.2283 18.9267 27.259 18.8653 27.2897 18.7936C27.3409 18.6708 27.3921 18.5582 27.4228 18.2511C27.433 18.1385 27.4433 18.0361 27.4433 17.9235C27.4433 17.729 27.433 17.555 27.4228 17.3605V17.3912Z" fill="#008837"/>
<path d="M0.327564 7.12431V7.14479L0.276383 7.29833C0.235438 7.42116 0.184257 7.58494 0.17402 7.78967C0.17402 7.89203 0.17402 8.00463 0.214965 8.12746L0.3378 8.49596L0.409453 8.72116C0.460634 8.93612 0.522052 9.02825 0.583469 9.11014C0.583469 9.11014 0.583469 9.15108 0.583469 9.26368L0.522052 9.9188H0.900791C1.40237 9.9188 1.55591 9.59124 1.65827 9.39675L1.79134 9.17155C1.87323 9.05896 1.92441 8.96683 2.01654 8.69045C2.06772 8.51644 2.1189 8.46526 2.18032 8.40384C2.24173 8.34242 2.33386 8.26053 2.41575 8.09675C2.46693 8.00463 2.58977 7.90226 2.76378 7.75896L3.18347 7.39045C3.25512 7.32904 3.4189 7.28809 3.58268 7.25738C3.75669 7.21644 3.95118 7.17549 4.13543 7.0936L4.36063 6.99124C4.52441 6.91959 4.62677 6.86841 4.81102 6.68416C4.96457 6.54085 5.01575 6.34636 4.95433 6.17235C4.8315 5.80384 4.31969 5.70148 4.16614 5.67077C3.98189 5.64006 3.85906 5.6503 3.73622 5.67077C3.61339 5.68101 3.48032 5.69124 3.23465 5.67077L2.36457 5.61959C2.05748 5.58888 1.88347 5.61959 1.7504 5.62983C1.6378 5.64006 1.55591 5.66053 1.38189 5.62983C1.01339 5.58888 0.757484 5.70148 0.593705 5.78337L0.491343 5.82431H0.450398L0.358272 5.86526C0.317327 5.88573 0.194493 5.96762 0.0921308 6.1314L0.0204773 6.26447L0.214965 6.87864C0.214965 6.87864 0.296855 7.05266 0.317327 7.10384L0.327564 7.12431Z" fill="#008837"/>
</svg>
