<svg width="244" height="40" viewBox="0 0 244 40" fill="none" xmlns="http://www.w3.org/2000/svg">
<g clip-path="url(#clip0_6562_57783)">
<path d="M30.0016 -0.000328064C40.4934 -0.000240927 43.9043 14.0977 34.5729 18.8942L26.6667 22.9577V26.6667H27.778L27.9997 26.3708C30.2088 23.4252 34.3881 22.8276 37.3337 25.0368C40.2791 27.2459 40.8758 31.4253 38.6667 34.3708L38.444 34.6667C35.926 38.0239 31.9746 39.9996 27.778 39.9997H15.5553C6.96434 39.9996 -0.000324249 33.035 -0.000324249 24.444V15.5553C-0.000210857 6.9644 6.96442 -0.000210557 15.5553 -0.000328064H30.0016Z" fill="url(#paint0_linear_6562_57783)"/>
<path d="M31.3333 9.77778L22.2222 0H15.5C6.93959 0 0 6.93959 0 15.5V24.5C0 33.0604 6.93959 40 15.5 40H20.6111C20.6111 40 12.3889 33.7778 12.3889 25.1667V12.3333H28.7778L31.3333 9.77778Z" fill="url(#paint1_linear_6562_57783)"/>
<path d="M30.0016 -0.000366211C40.4934 -0.000279074 43.9043 14.0977 34.5729 18.8942L26.6667 22.9576C23.6191 20.2736 6.36998 3 6.36998 3C8.94403 1.11362 12.1196 -0.000319217 15.5553 -0.000366211H30.0016Z" fill="url(#paint2_linear_6562_57783)"/>
<path d="M13 27V13H27M13 13L27 27" stroke="white" stroke-width="6.22222" stroke-linecap="round" stroke-linejoin="round"/>
</g>
<path d="M53.0667 8.7C52.1111 8.7 51.4222 8.48889 51 8.06666C50.6 7.64444 50.4 7.1 50.4 6.43333C50.4 5.78889 50.6 5.25555 51 4.83333C51.4222 4.41111 52.1111 4.2 53.0667 4.2H74.5667C75.9667 4.2 76.9667 4.41111 77.5667 4.83333C78.1889 5.25555 78.5 6.07777 78.5 7.3V11C78.5 12.2 78.4 13.2333 78.2 14.1C78.0222 14.9444 77.7889 15.6444 77.5 16.2H77.8667C78.7556 16.2 79.3778 16.4222 79.7333 16.8667C80.0889 17.3111 80.2667 17.8222 80.2667 18.4C80.2667 19 80.0778 19.5222 79.7 19.9667C79.3444 20.3889 78.7333 20.6 77.8667 20.6H51.4667C50.6 20.6 49.9778 20.3889 49.6 19.9667C49.2444 19.5222 49.0667 19 49.0667 18.4C49.0667 17.8222 49.2444 17.3111 49.6 16.8667C49.9556 16.4222 50.5778 16.2 51.4667 16.2H70.9C71.0111 15.9778 71.1222 15.7444 71.2333 15.5C71.3444 15.2556 71.4333 14.9778 71.5 14.6667H52.7C51.7444 14.6667 51.0667 14.4778 50.6667 14.1C50.2667 13.7222 50.0667 13.1889 50.0667 12.5C50.0667 11.8556 50.2667 11.3333 50.6667 10.9333C51.0667 10.5333 51.7444 10.3333 52.7 10.3333H71.9333V9.36666C71.9333 8.92222 71.6778 8.7 71.1667 8.7H53.0667ZM54.2 35.0333C53.4889 35.0333 52.8667 34.9111 52.3333 34.6667C51.8 34.4444 51.3556 34.1333 51 33.7333C50.6667 33.3556 50.4111 32.9111 50.2333 32.4C50.0778 31.8889 50 31.3444 50 30.7667V30.6667C50 29.4889 50.3333 28.5333 51 27.8C51.6667 27.0667 52.7333 26.7 54.2 26.7H72.0333V26.1C72.0333 25.7444 71.8 25.5667 71.3333 25.5667H52.2333C51.6111 25.5667 51.1333 25.3778 50.8 25C50.4889 24.6 50.3333 24.1778 50.3333 23.7333C50.3333 23.2889 50.4778 22.8667 50.7667 22.4667C51.0778 22.0667 51.5667 21.8667 52.2333 21.8667H75.1667C76.5889 21.8667 77.5667 22.1333 78.1 22.6667C78.6333 23.1778 78.9 23.9444 78.9 24.9667V30.1333H57.8C57.5556 30.1333 57.3889 30.1889 57.3 30.3C57.2111 30.3889 57.1667 30.5222 57.1667 30.7C57.1667 30.8778 57.2111 31.0222 57.3 31.1333C57.3889 31.2444 57.5556 31.3 57.8 31.3H78.0333C78.6778 31.3 79.1333 31.5 79.4 31.9C79.6889 32.2778 79.8333 32.7 79.8333 33.1667C79.8333 33.5667 79.7 33.9778 79.4333 34.4C79.1667 34.8222 78.7 35.0333 78.0333 35.0333H54.2ZM106.3 21.2667H104.633V35.0333H98.8333V6.56666C98.8333 5.63333 99.1222 4.93333 99.7 4.46666C100.278 3.97777 100.956 3.73333 101.733 3.73333C102.489 3.73333 103.156 3.97777 103.733 4.46666C104.333 4.93333 104.633 5.63333 104.633 6.56666V15.8H106.3V6.56666C106.3 5.63333 106.6 4.93333 107.2 4.46666C107.8 3.97777 108.489 3.73333 109.267 3.73333C109.644 3.73333 110.011 3.8 110.367 3.93333C110.722 4.04444 111.033 4.22222 111.3 4.46666C111.589 4.71111 111.811 5.01111 111.967 5.36666C112.144 5.7 112.233 6.1 112.233 6.56666V35.0333H106.3V21.2667ZM88.5 26.7667C88.5 27.3444 88.6 27.7222 88.8 27.9C89.0222 28.0778 89.4222 28.1667 90 28.1667H95.3C96.2778 28.1667 96.9667 28.4444 97.3667 29C97.7889 29.5556 98 30.1667 98 30.8333C98 31.1667 97.9444 31.5 97.8333 31.8333C97.7444 32.1667 97.5889 32.4667 97.3667 32.7333C97.1444 33 96.8667 33.2111 96.5333 33.3667C96.2 33.5444 95.7889 33.6333 95.3 33.6333H87.3C86.2556 33.6333 85.4 33.5444 84.7333 33.3667C84.0667 33.2111 83.5333 32.9333 83.1333 32.5333C82.7556 32.1556 82.4889 31.6444 82.3333 31C82.2 30.3333 82.1333 29.5 82.1333 28.5V21.3C82.1333 20.3 82.2 19.4778 82.3333 18.8333C82.4889 18.1889 82.7556 17.6778 83.1333 17.3C83.5333 16.9 84.0667 16.6222 84.7333 16.4667C85.4 16.3111 86.2556 16.2333 87.3 16.2333H90.3V11.3333C90.3 10.7111 90 10.4 89.4 10.4H85C84 10.4 83.2778 10.1222 82.8333 9.56666C82.3889 8.98889 82.1667 8.35555 82.1667 7.66666C82.1667 7.33333 82.2111 7 82.3 6.66666C82.4111 6.33333 82.5778 6.04444 82.8 5.8C83.0444 5.53333 83.3444 5.32222 83.7 5.16666C84.0556 4.98888 84.4889 4.9 85 4.9H91.3667C92.5222 4.9 93.4444 4.97777 94.1333 5.13333C94.8222 5.28889 95.3444 5.54444 95.7 5.9C96.0778 6.25555 96.3222 6.73333 96.4333 7.33333C96.5444 7.91111 96.6 8.62222 96.6 9.46666V21.6667H90C89.4222 21.6667 89.0222 21.7556 88.8 21.9333C88.6 22.1111 88.5 22.4889 88.5 23.0667V26.7667ZM132.7 7.73333C132.678 8.73333 132.522 9.75555 132.233 10.8C133.633 10.8444 135.022 11.1222 136.4 11.6333C137.778 12.1444 139.022 12.9111 140.133 13.9333C141.244 14.9556 142.167 16.2444 142.9 17.8C143.656 19.3556 144.111 21.2 144.267 23.3333H137.5C137.344 22.2 137.033 21.1889 136.567 20.3C136.1 19.3889 135.511 18.6333 134.8 18.0333C134.111 17.4111 133.322 16.9444 132.433 16.6333C131.544 16.3222 130.6 16.1778 129.6 16.2C128.844 17.2444 127.989 18.2 127.033 19.0667C126.078 19.9333 125.067 20.6778 124 21.3C122.956 21.9222 121.867 22.4111 120.733 22.7667C119.622 23.1222 118.522 23.3111 117.433 23.3333C116.611 23.3556 115.9 23.1444 115.3 22.7C114.7 22.2333 114.356 21.5889 114.267 20.7667C114.178 19.9667 114.344 19.2667 114.767 18.6667C115.189 18.0667 115.822 17.6778 116.667 17.5C117.756 17.2556 118.811 16.8444 119.833 16.2667C120.878 15.6889 121.811 14.9667 122.633 14.1C123.456 13.2111 124.144 12.1889 124.7 11.0333C125.256 9.87777 125.622 8.6 125.8 7.2C125.933 6.13333 126.356 5.35555 127.067 4.86666C127.8 4.35555 128.633 4.13333 129.567 4.2C130.544 4.28889 131.322 4.63333 131.9 5.23333C132.478 5.83333 132.744 6.66666 132.7 7.73333ZM142.067 28.7333C142.578 28.7333 143.011 28.8222 143.367 29C143.744 29.1556 144.044 29.3667 144.267 29.6333C144.511 29.9 144.678 30.2111 144.767 30.5667C144.878 30.9 144.933 31.2333 144.933 31.5667C144.933 31.9222 144.878 32.2667 144.767 32.6C144.656 32.9333 144.478 33.2333 144.233 33.5C144.011 33.7667 143.722 33.9778 143.367 34.1333C143.011 34.2889 142.578 34.3667 142.067 34.3667H116.6C116.089 34.3667 115.656 34.2889 115.3 34.1333C114.944 33.9778 114.644 33.7667 114.4 33.5C114.178 33.2333 114.011 32.9333 113.9 32.6C113.789 32.2667 113.733 31.9222 113.733 31.5667C113.733 31.2333 113.778 30.9 113.867 30.5667C113.978 30.2111 114.144 29.9 114.367 29.6333C114.611 29.3667 114.911 29.1556 115.267 29C115.644 28.8222 116.089 28.7333 116.6 28.7333H142.067Z" fill="black"/>
<path d="M163.7 21.5333H161.367V26.1C161.367 28.7889 160.756 30.8111 159.533 32.1667C158.311 33.5222 156.511 34.2 154.133 34.2C151.756 34.2 149.933 33.5222 148.667 32.1667C147.4 30.8111 146.767 28.7889 146.767 26.1V12.6C146.767 9.91111 147.4 7.88889 148.667 6.53333C149.933 5.17777 151.756 4.5 154.133 4.5C156.511 4.5 158.311 5.17777 159.533 6.53333C160.756 7.88889 161.367 9.91111 161.367 12.6V16.1667H163.7V6.56666C163.7 5.63333 163.978 4.93333 164.533 4.46666C165.111 3.97777 165.789 3.73333 166.567 3.73333C167.322 3.73333 167.989 3.97777 168.567 4.46666C169.144 4.93333 169.433 5.63333 169.433 6.56666V35.0333H163.7V21.5333ZM171 6.56666C171 5.63333 171.289 4.93333 171.867 4.46666C172.467 3.97777 173.156 3.73333 173.933 3.73333C174.311 3.73333 174.678 3.8 175.033 3.93333C175.389 4.04444 175.7 4.22222 175.967 4.46666C176.256 4.71111 176.478 5.01111 176.633 5.36666C176.811 5.7 176.9 6.1 176.9 6.56666V35.0333H171V6.56666ZM154.133 29.1C154.467 29.1 154.778 28.9778 155.067 28.7333C155.378 28.4889 155.533 27.9889 155.533 27.2333V11.4667C155.533 10.7333 155.378 10.2444 155.067 10C154.778 9.73333 154.467 9.6 154.133 9.6C153.8 9.6 153.478 9.73333 153.167 10C152.878 10.2444 152.733 10.7333 152.733 11.4667V27.2333C152.733 27.9889 152.878 28.4889 153.167 28.7333C153.478 28.9778 153.8 29.1 154.133 29.1ZM184.567 33.7C183.478 33.7 182.6 33.6222 181.933 33.4667C181.267 33.3111 180.744 33.0333 180.367 32.6333C180.011 32.2556 179.767 31.7333 179.633 31.0667C179.5 30.4 179.433 29.5444 179.433 28.5V10.0667C179.433 9.02222 179.5 8.16666 179.633 7.5C179.767 6.83333 180.011 6.31111 180.367 5.93333C180.744 5.53333 181.267 5.26666 181.933 5.13333C182.6 4.97777 183.478 4.9 184.567 4.9H195.267C195.756 4.9 196.156 4.98888 196.467 5.16666C196.8 5.34444 197.067 5.56666 197.267 5.83333C197.467 6.1 197.611 6.4 197.7 6.73333C197.789 7.06666 197.833 7.38889 197.833 7.7C197.833 8.03333 197.789 8.36666 197.7 8.7C197.611 9.03333 197.467 9.33333 197.267 9.6C197.067 9.86666 196.8 10.0889 196.467 10.2667C196.133 10.4444 195.733 10.5333 195.267 10.5333H187C186.689 10.5333 186.467 10.6 186.333 10.7333C186.2 10.8667 186.133 11.1222 186.133 11.5V27.1667C186.133 27.5444 186.2 27.8 186.333 27.9333C186.467 28.0667 186.689 28.1333 187 28.1333H197.367C197.856 28.1333 198.256 28.2222 198.567 28.4C198.9 28.5778 199.156 28.8 199.333 29.0667C199.533 29.3333 199.667 29.6333 199.733 29.9667C199.822 30.3 199.867 30.6222 199.867 30.9333C199.867 31.2667 199.822 31.6 199.733 31.9333C199.667 32.2444 199.533 32.5333 199.333 32.8C199.133 33.0667 198.867 33.2778 198.533 33.4333C198.222 33.6111 197.833 33.7 197.367 33.7H184.567ZM202.033 35.0333V7.03333C202.033 5.94444 202.367 5.12222 203.033 4.56666C203.7 4.01111 204.478 3.73333 205.367 3.73333C206.256 3.73333 207.033 4.01111 207.7 4.56666C208.367 5.12222 208.7 5.94444 208.7 7.03333V35.0333H202.033ZM216.9 33.7C215.811 33.7 214.933 33.6222 214.267 33.4667C213.6 33.3111 213.078 33.0333 212.7 32.6333C212.344 32.2556 212.1 31.7333 211.967 31.0667C211.833 30.4 211.767 29.5444 211.767 28.5V10.0667C211.767 9.02222 211.833 8.16666 211.967 7.5C212.1 6.83333 212.344 6.31111 212.7 5.93333C213.078 5.53333 213.6 5.26666 214.267 5.13333C214.933 4.97777 215.811 4.9 216.9 4.9H227.333C227.822 4.9 228.222 4.98888 228.533 5.16666C228.867 5.34444 229.122 5.56666 229.3 5.83333C229.5 6.1 229.633 6.4 229.7 6.73333C229.789 7.06666 229.833 7.38889 229.833 7.7C229.833 8.03333 229.789 8.36666 229.7 8.7C229.633 9.03333 229.5 9.33333 229.3 9.6C229.1 9.86666 228.833 10.0889 228.5 10.2667C228.189 10.4444 227.8 10.5333 227.333 10.5333H219.233C218.922 10.5333 218.7 10.6 218.567 10.7333C218.433 10.8667 218.367 11.1222 218.367 11.5V16.3667H225.367C225.856 16.3667 226.267 16.4444 226.6 16.6C226.933 16.7556 227.2 16.9667 227.4 17.2333C227.622 17.4778 227.778 17.7667 227.867 18.1C227.978 18.4333 228.033 18.7778 228.033 19.1333C228.033 19.4667 227.978 19.8 227.867 20.1333C227.778 20.4667 227.622 20.7667 227.4 21.0333C227.2 21.2778 226.922 21.4778 226.567 21.6333C226.233 21.7889 225.833 21.8667 225.367 21.8667H218.367V27.1667C218.367 27.5444 218.433 27.8 218.567 27.9333C218.7 28.0667 218.922 28.1333 219.233 28.1333H229.2C229.689 28.1333 230.089 28.2222 230.4 28.4C230.733 28.5778 230.989 28.8 231.167 29.0667C231.367 29.3333 231.5 29.6333 231.567 29.9667C231.656 30.3 231.7 30.6222 231.7 30.9333C231.7 31.2667 231.656 31.6 231.567 31.9333C231.5 32.2444 231.367 32.5333 231.167 32.8C230.967 33.0667 230.7 33.2778 230.367 33.4333C230.056 33.6111 229.667 33.7 229.2 33.7H216.9ZM234.4 21.8H231.767C231.256 21.8 230.833 21.7222 230.5 21.5667C230.167 21.3889 229.9 21.1667 229.7 20.9C229.5 20.6111 229.356 20.3 229.267 19.9667C229.178 19.6111 229.133 19.2667 229.133 18.9333C229.133 18.6 229.178 18.2667 229.267 17.9333C229.356 17.5778 229.5 17.2667 229.7 17C229.9 16.7333 230.167 16.5111 230.5 16.3333C230.833 16.1556 231.256 16.0667 231.767 16.0667H234.4V6.96666C234.4 5.9 234.733 5.1 235.4 4.56666C236.067 4.01111 236.833 3.73333 237.7 3.73333C238.122 3.73333 238.533 3.81111 238.933 3.96666C239.333 4.1 239.689 4.3 240 4.56666C240.311 4.83333 240.556 5.16666 240.733 5.56666C240.933 5.96666 241.033 6.43333 241.033 6.96666V35.0333H234.4V21.8Z" fill="#1553FD"/>
<defs>
<linearGradient id="paint0_linear_6562_57783" x1="33.5086" y1="6.66663" x2="19.6132" y2="30.0885" gradientUnits="userSpaceOnUse">
<stop stop-color="#13E0D9"/>
<stop offset="1" stop-color="#2C3EDF"/>
</linearGradient>
<linearGradient id="paint1_linear_6562_57783" x1="34.7778" y1="21.5717" x2="-5.16668" y2="21.5717" gradientUnits="userSpaceOnUse">
<stop stop-color="#0A03D1"/>
<stop offset="0.846154" stop-color="#00D0FF"/>
</linearGradient>
<linearGradient id="paint2_linear_6562_57783" x1="23.5845" y1="-0.816219" x2="23.5845" y2="22.9576" gradientUnits="userSpaceOnUse">
<stop stop-color="#1C08FD"/>
<stop offset="1" stop-color="#07E5FE"/>
</linearGradient>
<clipPath id="clip0_6562_57783">
<rect width="40" height="40" fill="white"/>
</clipPath>
</defs>
</svg>
